<?xml version="1.0" standalone="no"?><!DOCTYPE svg PUBLIC "-//W3C//DTD SVG 1.1//EN" "http://www.w3.org/Graphics/SVG/1.1/DTD/svg11.dtd"><svg t="1654278972314" class="icon" viewBox="0 0 1024 1024" version="1.1" xmlns="http://www.w3.org/2000/svg" p-id="2525" xmlns:xlink="http://www.w3.org/1999/xlink" width="128" height="128"><defs><style type="text/css">@font-face { font-family: feedback-iconfont; src: url("//at.alicdn.com/t/font_1031158_u69w8yhxdu.woff2?t=1630033759944") format("woff2"), url("//at.alicdn.com/t/font_1031158_u69w8yhxdu.woff?t=1630033759944") format("woff"), url("//at.alicdn.com/t/font_1031158_u69w8yhxdu.ttf?t=1630033759944") format("truetype"); }
</style></defs><path d="M930.574702 941.958472H563.937394c-15.486716 0-28.021194-12.534478-28.021193-28.02324V561.146327c0-7.443529 2.956332-14.611789 8.237615-19.865443 5.253654-5.200442 12.368702-8.156774 19.783578-8.156774h0.081865l366.636285 1.204431c15.46011 0.055259 27.940352 12.589736 27.940352 28.02324v351.583451c0 15.488763-12.534478 28.02324-28.021194 28.02324z m-338.615091-56.042387h310.593898V590.264505l-310.593898-0.986468v296.638048zM460.060559 490.76435H93.424274c-15.488763 0-28.021194-12.534478-28.021193-28.022217V110.062721c0-7.443529 2.955308-14.612813 8.236591-19.868513 5.253654-5.198395 12.368702-8.154727 19.784602-8.154727h0.082888l366.636285 1.204432c15.461133 0.055259 27.939329 12.586666 27.939329 28.02017V462.742133c0 15.488763-12.534478 28.022217-28.022217 28.022217z m-338.616114-56.042387h310.592874V139.178853l-310.592874-0.984421v296.527531zM930.574702 490.76435H563.937394c-15.486716 0-28.021194-12.534478-28.021193-28.022217V110.062721c0-7.443529 2.956332-14.612813 8.237615-19.868513 5.253654-5.198395 12.368702-8.154727 19.783578-8.154727h0.081865l366.636285 1.204432c15.46011 0.055259 27.940352 12.586666 27.940352 28.02017V462.742133c0 15.488763-12.534478 28.022217-28.021194 28.022217z m-338.615091-56.042387h310.593898V139.178853l-310.593898-0.984421v296.527531zM460.060559 941.958472H93.424274c-15.488763 0-28.021194-12.534478-28.021193-28.02324V561.146327c0-7.443529 2.955308-14.611789 8.236591-19.865443a28.161387 28.161387 0 0 1 19.784602-8.156774h0.082888l366.636285 1.204431c15.461133 0.055259 27.939329 12.589736 27.939329 28.02324v351.583451c0 15.488763-12.534478 28.02324-28.022217 28.02324z m-338.616114-56.042387h310.592874V590.264505l-310.592874-0.986468v296.638048z" p-id="2526" fill="#1296db"></path></svg>